<?xml version="1.0" encoding="UTF-8" standalone="no"?>
<!DOCTYPE svg PUBLIC "-//W3C//DTD SVG 1.1//EN" "http://www.w3.org/Graphics/SVG/1.1/DTD/svg11.dtd">
<svg width="100%" height="100%" viewBox="0 0 720 540" version="1.1" xmlns="http://www.w3.org/2000/svg" xmlns:xlink="http://www.w3.org/1999/xlink" xml:space="preserve" xmlns:serif="http://www.serif.com/" style="fill-rule:evenodd;clip-rule:evenodd;stroke-linecap:round;stroke-linejoin:round;stroke-miterlimit:1.5;">
    <g transform="matrix(0.333333,0,0,0.349985,120,0)">
        <rect x="180" y="0" width="180" height="171.436" style="fill:white;stroke:black;stroke-width:5.85px;"/>
    </g>
    <g transform="matrix(0.333333,0,0,0.349985,120,60)">
        <rect x="180" y="0" width="180" height="171.436" style="fill:white;stroke:black;stroke-width:5.85px;"/>
    </g>
    <g transform="matrix(0.333333,0,0,0.349985,120,120)">
        <rect x="180" y="0" width="180" height="171.436" style="fill:white;stroke:black;stroke-width:5.85px;"/>
    </g>
    <g transform="matrix(0.333333,0,0,0.349985,180,-7.10543e-15)">
        <rect x="180" y="0" width="180" height="171.436" style="fill:white;stroke:black;stroke-width:5.85px;"/>
    </g>
    <g transform="matrix(0.333333,0,0,0.349985,180,60)">
        <rect x="180" y="0" width="180" height="171.436" style="fill:white;stroke:black;stroke-width:5.85px;"/>
    </g>
    <g transform="matrix(0.333333,0,0,0.349985,180,120)">
        <rect x="180" y="0" width="180" height="171.436" style="fill:white;stroke:black;stroke-width:5.85px;"/>
    </g>
    <g transform="matrix(0.333333,0,0,0.349985,240,-7.10543e-15)">
        <rect x="180" y="0" width="180" height="171.436" style="fill:white;stroke:black;stroke-width:5.85px;"/>
    </g>
    <g transform="matrix(0.333333,0,0,0.349985,240,60)">
        <rect x="180" y="0" width="180" height="171.436" style="fill:white;stroke:black;stroke-width:5.85px;"/>
    </g>
    <g transform="matrix(0.333333,0,0,0.349985,240,120)">
        <rect x="180" y="0" width="180" height="171.436" style="fill:white;stroke:black;stroke-width:5.85px;"/>
    </g>
    <g transform="matrix(0.333333,0,0,0.349985,-60,180)">
        <rect x="180" y="0" width="180" height="171.436" style="fill:rgb(254,165,2);stroke:black;stroke-width:5.85px;"/>
    </g>
    <g transform="matrix(0.333333,0,0,0.349985,-60,240)">
        <rect x="180" y="0" width="180" height="171.436" style="fill:rgb(254,165,2);stroke:black;stroke-width:5.85px;"/>
    </g>
    <g transform="matrix(0.333333,0,0,0.349985,-60,300)">
        <rect x="180" y="0" width="180" height="171.436" style="fill:rgb(254,165,2);stroke:black;stroke-width:5.85px;"/>
    </g>
    <g transform="matrix(0.333333,0,0,0.349985,2.84217e-14,180)">
        <rect x="180" y="0" width="180" height="171.436" style="fill:rgb(254,165,2);stroke:black;stroke-width:5.85px;"/>
    </g>
    <g transform="matrix(0.333333,0,0,0.349985,1.42109e-14,240)">
        <rect x="180" y="0" width="180" height="171.436" style="fill:rgb(254,165,2);stroke:black;stroke-width:5.85px;"/>
    </g>
    <g transform="matrix(0.333333,0,0,0.349985,2.84217e-14,300)">
        <rect x="180" y="0" width="180" height="171.436" style="fill:rgb(254,165,2);stroke:black;stroke-width:5.85px;"/>
    </g>
    <g transform="matrix(0.333333,0,0,0.349985,60,180)">
        <rect x="180" y="0" width="180" height="171.436" style="fill:rgb(254,165,2);stroke:black;stroke-width:5.85px;"/>
    </g>
    <g transform="matrix(0.333333,0,0,0.349985,60,240)">
        <rect x="180" y="0" width="180" height="171.436" style="fill:rgb(254,165,2);stroke:black;stroke-width:5.85px;"/>
    </g>
    <g transform="matrix(0.333333,0,0,0.349985,60,300)">
        <rect x="180" y="0" width="180" height="171.436" style="fill:rgb(254,165,2);stroke:black;stroke-width:5.85px;"/>
    </g>
    <g transform="matrix(0.333333,0,0,0.349985,120,180)">
        <rect x="180" y="0" width="180" height="171.436" style="fill:rgb(50,205,51);stroke:black;stroke-width:5.85px;"/>
    </g>
    <g transform="matrix(0.333333,0,0,0.349985,120,240)">
        <rect x="180" y="0" width="180" height="171.436" style="fill:rgb(50,205,51);stroke:black;stroke-width:5.85px;"/>
    </g>
    <g transform="matrix(0.333333,0,0,0.349985,120,300)">
        <rect x="180" y="0" width="180" height="171.436" style="fill:rgb(50,205,51);stroke:black;stroke-width:5.85px;"/>
    </g>
    <g transform="matrix(0.333333,0,0,0.349985,180,180)">
        <rect x="180" y="0" width="180" height="171.436" style="fill:rgb(50,205,51);stroke:black;stroke-width:5.85px;"/>
    </g>
    <g transform="matrix(0.333333,0,0,0.349985,180,240)">
        <rect x="180" y="0" width="180" height="171.436" style="fill:rgb(50,205,51);stroke:black;stroke-width:5.85px;"/>
    </g>
    <g transform="matrix(0.333333,0,0,0.349985,180,300)">
        <rect x="180" y="0" width="180" height="171.436" style="fill:rgb(50,205,51);stroke:black;stroke-width:5.85px;"/>
    </g>
    <g transform="matrix(0.333333,0,0,0.349985,240,180)">
        <rect x="180" y="0" width="180" height="171.436" style="fill:rgb(50,205,51);stroke:black;stroke-width:5.85px;"/>
    </g>
    <g transform="matrix(0.333333,0,0,0.349985,240,240)">
        <rect x="180" y="0" width="180" height="171.436" style="fill:rgb(50,205,51);stroke:black;stroke-width:5.85px;"/>
    </g>
    <g transform="matrix(0.333333,0,0,0.349985,240,300)">
        <rect x="180" y="0" width="180" height="171.436" style="fill:rgb(50,205,51);stroke:black;stroke-width:5.85px;"/>
    </g>
    <g transform="matrix(0.333333,0,0,0.349985,300,180)">
        <rect x="180" y="0" width="180" height="171.436" style="fill:rgb(255,0,0);stroke:black;stroke-width:5.85px;"/>
    </g>
    <g transform="matrix(0.333333,0,0,0.349985,300,240)">
        <rect x="180" y="0" width="180" height="171.436" style="fill:rgb(255,0,0);stroke:black;stroke-width:5.85px;"/>
    </g>
    <g transform="matrix(0.333333,0,0,0.349985,300,300)">
        <rect x="180" y="0" width="180" height="171.436" style="fill:rgb(255,0,0);stroke:black;stroke-width:5.85px;"/>
    </g>
    <g transform="matrix(0.333333,0,0,0.349985,360,180)">
        <rect x="180" y="0" width="180" height="171.436" style="fill:rgb(255,0,0);stroke:black;stroke-width:5.85px;"/>
    </g>
    <g transform="matrix(0.333333,0,0,0.349985,360,240)">
        <rect x="180" y="0" width="180" height="171.436" style="fill:rgb(255,0,0);stroke:black;stroke-width:5.85px;"/>
    </g>
    <g transform="matrix(0.333333,0,0,0.349985,360,300)">
        <rect x="180" y="0" width="180" height="171.436" style="fill:rgb(255,0,0);stroke:black;stroke-width:5.85px;"/>
    </g>
    <g transform="matrix(0.333333,0,0,0.349985,420,180)">
        <rect x="180" y="0" width="180" height="171.436" style="fill:rgb(255,0,0);stroke:black;stroke-width:5.85px;"/>
    </g>
    <g transform="matrix(0.333333,0,0,0.349985,420,240)">
        <rect x="180" y="0" width="180" height="171.436" style="fill:rgb(255,0,0);stroke:black;stroke-width:5.85px;"/>
    </g>
    <g transform="matrix(0.333333,0,0,0.349985,420,300)">
        <rect x="180" y="0" width="180" height="171.436" style="fill:rgb(255,0,0);stroke:black;stroke-width:5.85px;"/>
    </g>
    <g transform="matrix(0.333333,0,0,0.349985,480,180)">
        <rect x="180" y="0" width="180" height="171.436" style="fill:rgb(34,102,255);stroke:black;stroke-width:5.85px;"/>
    </g>
    <g transform="matrix(0.333333,0,0,0.349985,480,240)">
        <rect x="180" y="0" width="180" height="171.436" style="fill:rgb(34,102,255);stroke:black;stroke-width:5.85px;"/>
    </g>
    <g transform="matrix(0.333333,0,0,0.349985,480,300)">
        <rect x="180" y="0" width="180" height="171.436" style="fill:rgb(34,102,255);stroke:black;stroke-width:5.85px;"/>
    </g>
    <g transform="matrix(0.333333,0,0,0.349985,540,180)">
        <rect x="180" y="0" width="180" height="171.436" style="fill:rgb(34,102,255);stroke:black;stroke-width:5.85px;"/>
    </g>
    <g transform="matrix(0.333333,0,0,0.349985,540,240)">
        <rect x="180" y="0" width="180" height="171.436" style="fill:rgb(34,102,255);stroke:black;stroke-width:5.85px;"/>
    </g>
    <g transform="matrix(0.333333,0,0,0.349985,540,300)">
        <rect x="180" y="0" width="180" height="171.436" style="fill:rgb(34,102,255);stroke:black;stroke-width:5.85px;"/>
    </g>
    <g transform="matrix(0.333333,0,0,0.349985,600,180)">
        <rect x="180" y="0" width="180" height="171.436" style="fill:rgb(34,102,255);stroke:black;stroke-width:5.85px;"/>
    </g>
    <g transform="matrix(0.333333,0,0,0.349985,600,240)">
        <rect x="180" y="0" width="180" height="171.436" style="fill:rgb(34,102,255);stroke:black;stroke-width:5.85px;"/>
    </g>
    <g transform="matrix(0.333333,0,0,0.349985,600,300)">
        <rect x="180" y="0" width="180" height="171.436" style="fill:rgb(34,102,255);stroke:black;stroke-width:5.85px;"/>
    </g>
    <g transform="matrix(0.333333,0,0,0.349985,120,360)">
        <rect x="180" y="0" width="180" height="171.436" style="fill:rgb(253,255,3);stroke:black;stroke-width:5.85px;"/>
    </g>
    <g transform="matrix(0.333333,0,0,0.349985,120,420)">
        <rect x="180" y="0" width="180" height="171.436" style="fill:rgb(253,255,3);stroke:black;stroke-width:5.85px;"/>
    </g>
    <g transform="matrix(0.333333,0,0,0.349985,120,480)">
        <rect x="180" y="0" width="180" height="171.436" style="fill:rgb(253,255,3);stroke:black;stroke-width:5.85px;"/>
    </g>
    <g transform="matrix(0.333333,0,0,0.349985,180,360)">
        <rect x="180" y="0" width="180" height="171.436" style="fill:rgb(253,255,3);stroke:black;stroke-width:5.85px;"/>
    </g>
    <g transform="matrix(0.333333,0,0,0.349985,180,420)">
        <rect x="180" y="0" width="180" height="171.436" style="fill:rgb(253,255,3);stroke:black;stroke-width:5.85px;"/>
    </g>
    <g transform="matrix(0.333333,0,0,0.349985,180,480)">
        <rect x="180" y="0" width="180" height="171.436" style="fill:rgb(253,255,3);stroke:black;stroke-width:5.85px;"/>
    </g>
    <g transform="matrix(0.333333,0,0,0.349985,240,360)">
        <rect x="180" y="0" width="180" height="171.436" style="fill:rgb(253,255,3);stroke:black;stroke-width:5.85px;"/>
    </g>
    <g transform="matrix(0.333333,0,0,0.349985,240,420)">
        <rect x="180" y="0" width="180" height="171.436" style="fill:rgb(253,255,3);stroke:black;stroke-width:5.85px;"/>
    </g>
    <g transform="matrix(0.333333,0,0,0.349985,240,480)">
        <rect x="180" y="0" width="180" height="171.436" style="fill:rgb(253,255,3);stroke:black;stroke-width:5.85px;"/>
    </g>
</svg>
